<?xml version="1.0" standalone="no"?>
<!DOCTYPE svg PUBLIC "-//W3C//DTD SVG 20010904//EN"
 "http://www.w3.org/TR/2001/REC-SVG-20010904/DTD/svg10.dtd">
<svg version="1.0" xmlns="http://www.w3.org/2000/svg"
 width="697.000000pt" height="457.000000pt" viewBox="0 0 697.000000 457.000000"
 preserveAspectRatio="xMidYMid meet">

<g transform="translate(0.000000,457.000000) scale(0.100000,-0.100000)"
fill="#000000" stroke="none">
<path d="M470 2470 l0 -1120 185 0 185 0 0 465 0 465 495 0 495 0 0 -465 0
-465 185 0 185 0 0 473 0 473 58 18 c94 30 173 77 252 153 118 112 178 229
200 392 28 203 -51 418 -205 559 -35 32 -86 70 -114 86 l-51 27 0 -328 c0
-323 -1 -329 -24 -378 -29 -64 -77 -112 -141 -141 l-50 -24 -642 0 -643 0 0
280 0 280 495 0 495 0 0 -211 0 -210 144 3 c138 3 146 4 171 28 55 51 55 53
55 413 l0 335 -22 6 c-13 3 -402 6 -865 6 l-843 0 0 -1120z"/>
<path d="M3203 3248 l-341 -343 -11 -74 c-30 -200 -128 -376 -279 -501 l-53
-45 36 -7 c20 -4 50 -15 68 -24 18 -9 203 -186 412 -393 410 -406 434 -426
590 -479 l80 -27 945 0 945 0 73 27 c198 72 347 223 412 418 31 90 38 251 16
345 -22 91 -74 199 -131 268 l-45 56 55 73 c163 216 180 506 43 735 -72 122
-217 238 -358 286 l-65 22 -1025 3 -1025 2 -342 -342z m847 -1388 l190 0 0
210 0 210 633 0 c704 0 687 1 766 -67 149 -127 123 -360 -49 -457 l-55 -31
-864 -3 c-930 -3 -919 -3 -1004 48 -25 16 -508 490 -677 664 l-34 37 449 449
450 450 3 -755 2 -755 190 0z m1526 1333 c65 -35 101 -70 129 -127 69 -141 23
-294 -113 -374 l-47 -27 -652 -3 -653 -3 0 281 0 281 648 -3 c645 -3 647 -3
688 -25z"/>
</g>
</svg>
